<?xml version="1.0" encoding="UTF-8" standalone="no"?><!DOCTYPE svg PUBLIC "-//W3C//DTD SVG 1.1//EN" "http://www.w3.org/Graphics/SVG/1.1/DTD/svg11.dtd"><svg width="100%" height="100%" viewBox="0 0 1000 1000" version="1.1" xmlns="http://www.w3.org/2000/svg" xmlns:xlink="http://www.w3.org/1999/xlink" xml:space="preserve" xmlns:serif="http://www.serif.com/" style="fill-rule:evenodd;clip-rule:evenodd;stroke-linejoin:round;stroke-miterlimit:2;"><g id="Ebene1"><path id="path2" d="M109,445.399l0,192.13l287.844,0l371.909,-20.441l29.11,-145.701c-0.263,0 -0.35,-22.688 -0.35,-109.059l0,-109.058l-344.257,0l-344.256,0l0,192.129Zm380.025,-152.681c6.19,0.525 11.709,1.927 16.76,4.234l2.366,1.08l0,24.644c0,19.622 -0.088,24.644 -0.351,24.527c-6.745,-2.745 -10.512,-4 -13.957,-4.613c-3.095,-0.555 -9.285,-0.467 -11.796,0.146c-7.651,1.839 -11.651,7.095 -13.344,17.461c-0.205,1.372 -0.38,7.913 -0.468,18.687l-0.146,16.585l40.062,0l0,23.651l0,23.652l-20.002,0l-20.001,0l0,57.23l0,57.23l-28.615,0l-28.615,0l0,-114.46l-10.074,0l-10.074,0l0,-47.303l20.148,0l0,-13.373c0,-24.41 0.788,-32.878 3.825,-42.251c2.949,-9.052 8.643,-17.87 16.76,-25.987c10.045,-10.045 23.038,-16.994 37.141,-19.855c7.008,-1.402 13.957,-1.84 20.381,-1.285Zm-171.982,27.33c0.964,2.453 88.999,236.22 89.115,236.658c0.146,0.496 -1.547,0.526 -32.673,0.526l-32.82,0l-7.738,-20.586l-7.708,-20.585l-42.631,0l-42.66,0l-8,20.177c-4.409,11.095 -8.147,20.351 -8.322,20.585c-0.233,0.35 -5.226,0.409 -32.849,0.35l-32.586,-0.087l45.697,-118.782l45.696,-118.752l33.637,0c31.769,0 33.638,0.029 33.842,0.496Zm310.794,0.175c9.957,1.197 17.841,2.92 26.309,5.752c41.842,13.928 72.355,48.967 79.859,91.685c4.351,24.849 0.788,50.223 -10.161,72.56c-5.548,11.3 -12.41,20.994 -21.374,30.192c-9.84,10.073 -19.797,17.373 -32.265,23.651c-13.461,6.745 -26.25,10.512 -42.339,12.497c-3.474,0.409 -9.606,0.496 -52.178,0.584l-48.266,0.117l0,-237.739l48.12,0.117c43.273,0.088 48.499,0.146 52.295,0.584Z" style="fill:#009fe1;fill-rule:nonzero;"/><path id="path6" d="M589.73,438.798l0,66.573l7.825,0c15.125,0 23.476,-1.08 33.053,-4.292c18.279,-6.073 31.273,-18.716 37.317,-36.294c4.759,-13.899 5.343,-31.681 1.547,-46.514c-6.394,-24.732 -25.228,-40.996 -52.149,-44.996c-4.789,-0.73 -10.891,-1.051 -19.476,-1.051l-8.117,0l0,66.574Z" style="fill:#009fe1;fill-rule:nonzero;"/><path id="path4" d="M281.476,397.977c-0.818,2.453 -5.198,15.447 -9.723,28.849c-4.526,13.402 -9.578,28.411 -11.242,33.345l-3.037,8.994l51.303,0l-12.585,-37.813c-6.949,-20.79 -12.76,-37.813 -12.906,-37.813c-0.175,0 -0.963,2.015 -1.81,4.438Z" style="fill:#009fe1;fill-rule:nonzero;"/></g><path id="path2440" d="M396.345,714.067c16.156,35.297 74.304,43.379 158.711,17.394c40.808,-12.564 128.231,-45.586 178.706,-80.895c64.411,-45.055 93.248,-69.365 101.036,-79.635l33.246,41.603l22.956,-132.974l-137.03,-11.736l32.691,42.29c0,0 -44.375,44.434 -116.467,75.907c-54.726,23.891 -142.303,52.628 -166.498,40.445c-40.727,-20.503 16.456,-75.328 16.456,-75.328c-68.199,15.508 -118.18,47.234 -129.361,110.528c-2.753,15.584 -2.024,35.845 5.554,52.401" style="fill:#e2001a;fill-rule:nonzero;"/></svg>