<?xml version="1.0" encoding="UTF-8" standalone="no"?><!DOCTYPE svg PUBLIC "-//W3C//DTD SVG 1.1//EN" "http://www.w3.org/Graphics/SVG/1.1/DTD/svg11.dtd"><svg width="100%" height="100%" viewBox="0 0 1000 1000" version="1.1" xmlns="http://www.w3.org/2000/svg" xmlns:xlink="http://www.w3.org/1999/xlink" xml:space="preserve" xmlns:serif="http://www.serif.com/" style="fill-rule:evenodd;clip-rule:evenodd;stroke-linejoin:round;stroke-miterlimit:2;"><g id="_89729424"><path id="_47141144" d="M885.945,592.887c13.368,0 26.079,-10.572 28.198,-23.893c2.252,-14.163 -7.561,-24.523 -21.351,-24.523c-12.521,0 -25.088,10.994 -27.138,23.891c-2.152,13.532 6.708,24.525 20.291,24.525Zm-117.495,-2.327l76.394,0l5.685,-37.631l-35.276,0l3.673,-24.314l31.646,0l5.685,-37.631l-31.65,0l3.352,-22.201l35.276,0l5.683,-37.631l-76.395,0l-24.073,159.408Zm-7.954,0l-24.232,-82.453l44.478,-76.955l-43.337,0l-32.824,67.866l10.046,-67.866l-41.119,0l-24.075,159.408l41.123,0l11.044,-73.148l14.755,73.148l44.141,0Zm-234.589,0l39.508,0l7.055,-46.721c2.267,-15.015 2.688,-29.812 3.947,-44.821l17.218,91.542l39.506,0l24.074,-159.408l-39.507,0l-6.13,40.591c-2.777,18.393 -2.501,36.574 -3.667,54.968l-18.825,-95.559l-39.105,0l-24.074,159.408Zm-72.55,0l5.68,-37.631l-30.841,0l18.391,-121.777l-41.119,0l-24.074,159.408l71.963,0Zm-193.062,0l76.395,0l5.683,-37.631l-35.274,0l3.672,-24.314l31.647,0l5.683,-37.631l-31.65,0l3.354,-22.201l35.274,0l5.685,-37.631l-76.395,0l-24.074,159.408Zm-16.37,0l24.071,-159.408l-41.12,0l-24.074,159.408l41.123,0Zm-99.196,-119.661c18.744,0 18.331,24.101 15.713,41.439c-2.266,15.009 -9.196,39.534 -27.974,39.744l12.261,-81.183Zm-59.194,119.661l35.882,0c24.994,0 70.161,-6.764 81.271,-80.339c7.277,-48.203 -13.257,-79.069 -60.02,-79.069l-33.059,0l-24.074,159.408Zm423.741,0l20.281,-130.228l-41.119,0l-20.285,130.228l41.123,0Z"/><path id="_48064328" d="M537.828,407.113l-79.416,24.005l72.388,21.275l7.028,-45.28Z" style="fill:#dc0000;"/></g></svg>