<?xml version="1.0" encoding="UTF-8" standalone="no"?><!DOCTYPE svg PUBLIC "-//W3C//DTD SVG 1.1//EN" "http://www.w3.org/Graphics/SVG/1.1/DTD/svg11.dtd"><svg width="100%" height="100%" viewBox="0 0 1000 1000" version="1.1" xmlns="http://www.w3.org/2000/svg" xmlns:xlink="http://www.w3.org/1999/xlink" xml:space="preserve" xmlns:serif="http://www.serif.com/" style="fill-rule:evenodd;clip-rule:evenodd;stroke-linejoin:round;stroke-miterlimit:2;"><g><g><path d="M275.428,405.263c-0.622,3.728 -3.728,9.94 -13.667,9.94c-4.349,0 -8.697,-1.864 -11.804,-6.834c-2.484,-4.969 -2.484,-11.803 -2.484,-14.909l47.834,0c0,-5.591 0,-20.5 -8.697,-29.819c-6.213,-6.833 -15.531,-9.939 -24.849,-9.939c-7.455,0 -16.152,1.242 -23.607,8.697c-4.348,4.348 -10.561,12.424 -10.561,27.955c0,24.849 11.804,37.273 34.789,37.273c4.97,0 18.015,0 27.334,-10.56c3.727,-4.349 4.97,-8.698 5.591,-11.804l-19.879,0Zm-27.334,-23.606c0,-3.106 0.621,-6.834 3.727,-10.561c2.485,-3.106 5.591,-4.349 9.94,-4.349c11.803,0 13.667,11.183 13.667,14.91l-27.334,0Z" style="fill:#009ee3;fill-rule:nonzero;"/><path d="M242.503,523.296c-0.622,3.727 -3.728,9.939 -13.667,9.939c-4.349,0 -8.697,-1.863 -11.803,-6.833c-2.485,-4.97 -2.485,-11.803 -2.485,-14.909l47.834,0c0,-5.591 0,-20.501 -8.697,-29.819c-6.212,-6.834 -15.531,-9.94 -24.849,-9.94c-7.455,0 -16.152,1.243 -23.607,8.697c-4.348,4.349 -10.561,12.425 -10.561,27.956c0,24.848 11.804,37.273 34.789,37.273c4.97,0 18.016,0 27.334,-10.561c3.727,-4.348 4.97,-8.697 5.591,-11.803l-19.879,0Zm-27.955,-23.607c0,-3.106 0.621,-6.833 3.727,-10.56c2.485,-3.107 5.591,-4.349 9.94,-4.349c11.803,0 13.666,11.182 13.666,14.909l-27.333,0Z" style="fill:#009ee3;fill-rule:nonzero;"/><path d="M791.043,523.296c-0.621,3.727 -3.727,9.939 -13.667,9.939c-4.348,0 -8.697,-1.863 -11.803,-6.833c-2.485,-4.97 -2.485,-11.803 -2.485,-14.909l47.835,0c0,-5.591 0,-20.501 -8.698,-29.819c-6.212,-6.834 -15.53,-9.94 -24.849,-9.94c-7.454,0 -16.151,1.243 -23.606,8.697c-4.349,4.349 -10.561,12.425 -10.561,27.956c0,24.848 11.803,37.273 34.789,37.273c4.969,0 18.015,0 27.334,-10.561c3.727,-4.348 4.969,-8.697 5.591,-11.803l-19.88,0Zm-27.333,-23.607c0,-3.106 0.621,-6.833 3.727,-10.56c2.485,-3.107 5.591,-4.349 9.939,-4.349c11.804,0 13.667,11.182 13.667,14.909l-27.333,0Z" style="fill:#009ee3;fill-rule:nonzero;"/><path d="M392.839,405.263c-0.621,3.728 -3.727,9.94 -13.667,9.94c-4.349,0 -8.697,-1.864 -11.803,-6.834c-2.485,-4.969 -2.485,-11.803 -2.485,-14.909l47.834,0c0,-5.591 0,-20.5 -8.697,-29.819c-6.212,-6.833 -15.531,-9.939 -24.849,-9.939c-7.455,0 -16.152,1.242 -23.607,8.697c-4.348,4.348 -10.56,12.424 -10.56,27.955c0,24.849 11.803,37.273 34.788,37.273c4.97,0 18.016,0 27.334,-10.56c3.727,-4.349 4.97,-8.698 5.591,-11.804l-19.879,0Zm-27.955,-23.606c0,-3.106 0.621,-6.834 3.727,-10.561c2.485,-3.106 5.591,-4.349 9.94,-4.349c11.803,0 13.667,11.183 13.667,14.91l-27.334,0Z" style="fill:#009ee3;fill-rule:nonzero;"/><path d="M185.971,494.72c0,-29.819 -15.53,-45.35 -42.864,-45.35l-44.107,0l0,13.667l9.94,0l0,67.092l-9.94,0l0,13.667l45.349,0c26.092,0 41.622,-19.879 41.622,-49.076m-21.121,0.621c0,26.091 -9.319,34.788 -24.228,34.788l-11.803,0l0,-67.092l11.182,0c15.53,0 24.849,8.076 24.849,32.304" style="fill:#009ee3;fill-rule:nonzero;"/><path d="M361.778,543.796l34.167,0l0,-13.667l-8.076,0l0,-31.061c0,-16.773 -7.455,-27.334 -24.228,-27.334c-12.424,0 -20.5,6.213 -23.606,16.152c-1.864,-10.561 -9.319,-16.152 -21.122,-16.152c-11.803,0 -20.5,5.591 -24.227,16.152c1.242,-4.97 1.242,-9.318 1.242,-14.288l-29.198,0l0,13.667l9.319,0l0,42.864l-7.455,0l0,13.667l34.789,0l0,-13.667l-8.076,0l0,-23.606c0,-10.561 4.97,-18.637 14.909,-18.637c7.455,0 12.425,3.727 12.425,13.046l0,29.197l-6.834,0l0,13.667l34.167,0l0,-13.667l-8.697,0l0,-23.606c0,-11.182 5.591,-18.637 14.91,-18.637c7.454,0 12.424,3.727 12.424,13.046l0,29.197l-6.833,0l0,13.667Z" style="fill:#009ee3;fill-rule:nonzero;"/><path d="M472.977,509.629c0,-24.849 -12.425,-37.895 -36.031,-37.895c-22.986,0 -36.031,17.395 -36.031,37.895c0,24.228 13.667,36.031 36.031,36.031c22.364,0 36.031,-14.909 36.031,-36.031m-21.122,0c0,12.424 -4.348,20.5 -15.53,20.5c-11.804,0 -15.531,-7.454 -15.531,-20.5c0,-13.046 4.349,-22.985 15.531,-22.985c11.803,0.621 15.53,8.076 15.53,22.985" style="fill:#009ee3;fill-rule:nonzero;"/><path d="M477.947,543.796l32.924,0l0,-13.667l-6.212,0l0,-22.364l14.91,16.773c1.863,1.864 3.727,3.728 6.212,4.97l-7.455,0l0,13.667l37.274,0l0,-13.667l-8.076,0l-23.607,-25.47l22.364,-16.773l6.212,0l0,-13.667l-36.031,0l0,13.667l9.94,0c-1.242,0.621 -1.864,1.242 -3.106,1.864l-18.637,14.288l0,-63.365l-29.819,0l0,13.667l10.561,0l0,76.41l-7.454,0l0,13.667Z" style="fill:#009ee3;fill-rule:nonzero;"/><path d="M572.994,530.129l-7.455,0l0,13.667l35.41,0l0,-13.667l-8.697,0l0,-22.985c0,-11.803 7.454,-18.637 17.394,-18.637c1.864,0 4.349,0 6.212,0.622l1.243,-16.773c-1.864,-0.622 -3.728,-0.622 -6.213,-0.622c-10.56,0 -17.394,6.213 -20.5,18.016c1.243,-6.834 1.243,-11.182 1.243,-16.152l-27.334,0l0,13.667l9.318,0l-0.621,42.864Z" style="fill:#009ee3;fill-rule:nonzero;"/><path d="M689.784,530.129l-8.076,0c0,-9.939 0.621,-19.879 0.621,-31.061c0,-20.5 -11.182,-27.334 -29.819,-27.334c-12.424,0 -23.606,4.97 -27.955,7.455l0,18.015l16.152,0l0,-9.318c3.106,-1.242 9.319,-1.864 11.803,-1.864c8.698,0 12.425,3.107 12.425,13.667l0,3.107c-13.667,0 -22.364,0.621 -29.819,3.106c-7.454,2.485 -14.288,9.318 -14.288,19.258c0,11.182 7.455,20.5 23.607,20.5c11.803,0 17.394,-4.97 22.364,-15.531c-0.622,2.485 -1.243,4.97 -1.243,9.94l0,4.349l23.607,0l0,-14.289l0.621,0Zm-25.47,-16.151c0,13.045 -6.834,18.015 -14.288,18.015c-7.455,0 -10.561,-4.349 -10.561,-8.697c0,-6.212 3.727,-9.318 19.258,-9.318l5.591,0Z" style="fill:#009ee3;fill-rule:nonzero;"/><path d="M700.345,473.598l-9.319,0l0,13.667l9.319,0l0,39.758c0,12.425 7.454,18.637 21.121,18.637c4.349,0 9.319,-1.242 16.773,-3.106l0,-13.667c-3.727,1.242 -6.212,1.864 -8.697,1.864c-8.076,0 -10.561,-2.485 -10.561,-12.425l0,-31.061l15.531,0l0,-13.667l-15.531,0l0,-15.531l-18.636,1.243l0,14.288Z" style="fill:#009ee3;fill-rule:nonzero;"/><path d="M825.832,530.129l-6.834,0l0,13.667l34.168,0l0,-13.667l-8.697,0l0,-23.606c0,-10.561 4.969,-18.637 16.773,-18.637c7.454,0 12.424,3.727 12.424,13.046l0,29.197l-7.455,0l0,13.667l34.789,0l0,-13.667l-8.076,0l0,-31.061c0,-16.773 -7.455,-27.334 -24.228,-27.334c-12.424,0 -21.121,6.834 -24.227,16.152c1.242,-4.97 1.242,-9.939 1.242,-14.909l-27.955,0l0,14.288l9.318,0l0,42.864l-1.242,0Z" style="fill:#009ee3;fill-rule:nonzero;"/></g><path d="M99,330.716l0,13.667l9.94,0l0,68.335l-8.076,0l0,13.667l38.516,0l0,-13.667l-10.561,0l0,-26.713l28.576,0l0,-14.288l-28.576,0l0,-27.334l22.364,0l0,6.834l16.152,0l0,-20.501l-68.335,0Z" style="fill:#009ee3;fill-rule:nonzero;"/><path d="M179.759,412.718l-7.455,0l0,13.667l35.41,0l0,-13.667l-9.318,0l0,-22.985c0,-11.803 7.455,-18.637 17.394,-18.637c1.864,0 4.349,0 6.212,0.621l1.243,-16.773c-1.864,-0.621 -3.728,-0.621 -6.212,-0.621c-10.561,0 -17.395,6.212 -20.501,18.015c1.243,-6.833 1.243,-11.182 1.243,-16.151l-27.334,0l0,13.045l9.318,0l0,43.486Z" style="fill:#009ee3;fill-rule:nonzero;"/><path d="M311.459,412.718l-7.455,0l0,13.667l34.788,0l0,-13.667l-8.076,0l0,-57.153l-28.576,0l0,13.667l9.319,0l0,43.486Z" style="fill:#009ee3;fill-rule:nonzero;"/><rect x="310.837" y="325.747" width="18.637" height="18.637" style="fill:#009ee3;"/><rect x="412.718" y="568.024" width="487.661" height="106.229" style="fill:#e5007d;"/><g><path d="M827.074,599.085l-6.212,0l0,-9.318l25.47,0c14.91,0 22.986,6.212 22.986,18.637c0,11.803 -8.076,19.879 -20.501,19.879l-8.697,0l0,14.909l6.212,0l0,9.318l-25.47,0l0,-9.318l6.212,0l0,-44.107Zm19.88,20.501c6.212,0 9.939,-3.728 9.939,-9.94c0,-6.212 -3.727,-9.94 -9.939,-9.94l-6.834,0l0,19.88l6.834,0Z" style="fill:#ffed00;fill-rule:nonzero;"/><path d="M809.68,620.207c0,-19.258 -10.561,-29.819 -27.955,-29.819l-29.198,0l0,8.697l6.834,0l0,44.107l-6.834,0l0,9.318l29.819,0c16.773,0 27.334,-13.045 27.334,-32.303m-14.288,0c0,16.773 -6.212,22.985 -16.152,22.985l-7.455,0l0,-44.107l7.455,0c10.561,0 16.152,5.591 16.152,21.122" style="fill:#ffed00;fill-rule:nonzero;"/></g><path d="M728.921,603.434l10.561,0l0,-13.046l-44.728,0l0,8.697l6.833,0l0,44.107l-5.591,0l0,9.318l25.47,0l0,-9.318l-7.454,0l0,-16.773l19.258,0l0,-9.318l-19.258,0l0,-18.016l14.909,0l0,4.349Z" style="fill:#ffed00;fill-rule:nonzero;"/></g></svg>