<?xml version="1.0" encoding="UTF-8" standalone="no"?><!DOCTYPE svg PUBLIC "-//W3C//DTD SVG 1.1//EN" "http://www.w3.org/Graphics/SVG/1.1/DTD/svg11.dtd"><svg width="100%" height="100%" viewBox="0 0 1000 1000" version="1.1" xmlns="http://www.w3.org/2000/svg" xmlns:xlink="http://www.w3.org/1999/xlink" xml:space="preserve" xmlns:serif="http://www.serif.com/" style="fill-rule:evenodd;clip-rule:evenodd;stroke-linejoin:round;stroke-miterlimit:2;"><rect x="0" y="0" width="1000" height="1000" style="fill:#1fa12d;fill-rule:nonzero;"/><path d="M73.862,727.42l523.632,0l5.092,-30.146l-523.632,0l-5.075,30.146" style="fill:#0066ac;fill-rule:nonzero;"/><path d="M926.077,465.524c0,-1.142 -3.006,-2.169 -4.971,-3.752c-6.494,-5.448 -29.865,-28.423 -75.806,-26.935c-5.813,0.2 -11.105,0.729 -15.915,1.559c9.741,-3.179 14.832,-5.075 17.759,-6.254c3.568,-1.403 27.019,-9.44 39.647,-50.631c1.122,-3.528 4.129,-12.019 3.367,-12.656c-0.962,-0.794 -8.819,0.613 -16.797,5.468c-7.977,4.855 -34.796,9.092 -38.043,9.609c-1.844,0.281 -9.742,-0.886 -21.528,5.308c13.27,-13.638 27.34,-33.025 31.149,-60.221c1.804,-13.048 1.002,-18.372 0.521,-18.336c-0.802,0.04 -1.203,0.04 -2.205,0.361c-2.966,0.866 -5.973,3.371 -15.674,9.902c-9.822,6.534 -20.165,13.77 -20.165,13.77c0,0 3.528,-35.546 2.406,-36.348c-1.043,-0.802 -21.247,-0.601 -52.195,33.863c0,0 3.528,-29.533 -2.285,-40.678c0,0 -1.604,-8.066 -2.887,-12.275c-0.601,-2.105 -2.245,-4.309 -2.525,-4.161c-0.481,0 -3.087,0.701 -7.497,5.765c-6.815,7.817 -38.524,17.386 -43.816,58.444c-4.009,-16.572 -12.427,-38.753 -33.273,-49.978c-11.746,-11.525 -16.958,-14.933 -17.559,-14.632c-0.561,0 -0.521,5.364 -2.125,16.889c-2.004,12.953 -3.808,17.042 -3.808,17.042c0,0 -21.848,-19.199 -22.369,-19.748c-1.002,-1.054 -14.352,41.127 -10.423,62.177c0,0 -6.935,-5.352 -19.523,-11.818c-14.271,-7.328 -38.284,-8.587 -38.124,-7.464c0.521,1.892 20.285,40.938 28.703,54.652c0,0 -53.838,-9.253 -52.916,-5.889c0.521,1.11 1.603,3.227 3.768,12.211c0,0 -21.126,-0.453 -20.886,1.291c0.481,1.952 16.035,27.921 17.238,29.34c0,0 -16.356,3.159 -19.803,3.347c-2.366,0.081 10.944,36.733 47.264,45.873c5.171,1.295 10.102,2.249 14.912,2.947c4.129,0.401 9.14,0.882 13.51,1.291c21.648,0.862 35.799,-4.691 33.353,-12.696c0,0 -0.721,-2.967 -22.85,-11.061c0,0 0.601,-2.645 2.085,-3.006c1.483,-0.361 24.534,8.086 22.93,6.739c-1.643,-1.371 -10.102,-10.752 -8.579,-10.672c1.484,0.04 12.347,4.654 15.955,1.283c3.448,-3.223 5.613,-9.14 7.858,-10.435c2.245,-1.287 -6.014,-8.96 4.89,-5.432c0,0 7.377,-4.157 1.564,-10.952c-5.813,-6.815 -24.294,-28.695 5.853,-2.289c7.216,6.326 25.255,-12.941 23.772,-23.412c0,0 7.256,7.268 8.779,8.046c1.484,0.782 11.586,1.98 13.911,-1.519c1.042,-1.604 -3.728,-16.521 -0.641,-23.075c0,0 1.282,-0.08 2.485,1.275c1.203,1.403 1.363,16.961 6.815,19.912c0,0 6.174,-3.604 7.216,-6.29c1.082,-2.71 -1.684,16.809 16.797,8.394c0,0 8.98,-7.993 11.585,-8.226c2.566,-0.24 -1.964,9.481 0.481,12.941c2.285,3.463 9.822,5.784 12.227,1.455c2.406,-4.334 13.951,-12.989 14.833,-12.644c0.922,0.361 -5.853,18.392 -6.615,20.164c-1.122,2.562 -1.924,6.378 -1.924,6.378c0,0 0.882,5.04 7.136,6.427c0,0 11.906,-6.932 24.253,-15.948c-1.283,1.564 -2.606,3.179 -3.888,4.911c0,0 -15.996,16.424 -15.996,18.802c0,2.381 5.452,7.713 9.942,4.69c4.49,-2.999 15.314,-7.485 16.276,-6.703c0.882,0.782 2.646,2.995 0.481,4.298c-2.245,1.282 -14.832,7.869 -14.832,7.869c0,0 14.391,0.982 31.99,-2.578c-19.042,7.729 -25.656,19.483 -25.496,20.602c0.601,3.772 30.146,-3.893 30.948,-2.029c4.249,9.641 -9.381,3.688 -15.314,4.69c-5.973,0.983 -21.327,1.327 -7.176,13.418c0,0 2.606,0.2 -4.369,4.309c-7.016,4.122 15.474,6.551 18.2,9.541c2.646,3.003 -22.369,-0.32 -21.848,7.232c0.481,7.529 -4.29,2.783 12.307,20.489c0,0 -9.982,-2.317 -11.105,-0.91c-1.202,1.412 21.768,20.461 21.648,25.881c0,0 -4.69,3.244 -6.695,0.401c-2.004,-2.846 -15.875,-18.208 -18.119,-18.661c-1.724,-0.361 -4.931,0.453 -6.415,3.432c0,0 6.054,14.143 4.17,14.544c-1.925,0.401 -11.426,-6.298 -11.426,-6.298c0,0 -6.213,2.75 -4.169,8.398c2.005,5.637 18.922,24.835 18,26.01c0,0 -1.483,3.163 -3.608,2.938c-2.205,-0.24 -13.951,-21.427 -16.797,-22.245c-2.926,-0.81 3.367,19.804 3.367,19.804c0,0 -10.583,-11.125 -13.389,-13.45c-2.806,-2.325 -3.247,2.462 -3.247,2.462l3.087,23.519c0,0 -32.913,-49.072 -24.895,9.449c0,0 -0.762,3.315 -1.844,3.199c-1.083,-0.12 -8.098,-19.362 -7.296,-24.622c0.801,-5.264 -5.733,14.58 -5.733,14.58c0,0 -10.343,-40.99 -31.75,1.034c0,0 -1.443,-15.879 -4.73,-18.597c-3.287,-2.722 -5.893,-3.672 -6.815,-3.696c-0.722,0 -5.011,-0.16 -8.94,7.164c-15.073,19.539 -24.694,44.658 -27.46,66.426c-0.481,15.073 1.242,42.293 0.521,48.106c-0.521,3.448 0,3.808 0.802,4.931c0,0.401 5.812,-4.29 7.536,-5.492c2.686,-1.764 30.187,-38.725 31.87,-47.986c0,0 14.713,64.422 19.644,71.317c1.122,1.483 1.964,3.127 2.726,1.964c1.443,-2.285 3.648,-8.298 5.291,-8.779c2.125,-0.641 8.339,-1.403 11.586,-10.583c3.247,-9.22 9.14,-18.16 11.866,-42.013c0,0 31.148,39.728 35.197,43.416c1.604,1.483 10.062,-12.588 13.791,-35.238c3.728,-22.609 -4.29,-53.036 -9.381,-54.079c0,0 -2.125,-3.327 3.808,-1.202c3.368,1.202 16.316,23.732 46.262,40.81c5.011,2.886 15.715,2.926 15.755,2.726c2.405,-6.695 -21.047,-68.134 -21.047,-68.134c0,0 0.562,-0.702 5.292,1.238c4.731,1.937 49.549,30.936 76.689,17.338c5.532,-2.746 5.893,-3.339 5.893,-3.339c3.087,-13.373 -20.846,-38.689 -35.558,-50.198c0,0 38.604,-1.564 44.578,-11.802c0,0 7.095,-2.566 10.743,-7.633c0.682,-0.898 -4.129,-9.705 -9.701,-13.574c-14.592,-10.118 -17.759,-13.927 -17.759,-13.927c0,0 4.089,-4.926 9.982,-6.77c5.853,-1.845 24.895,-13.59 19.843,-19.375c0,0 6.134,-5.324 5.853,-6.715" style="fill:#ffe400;fill-rule:nonzero;"/><path d="M219.639,477.174c-1.335,-1.52 -3.103,-2.277 -5.291,-2.277c-2.229,0 -4.25,0.745 -6.058,2.233c-1.804,1.483 -2.886,3.267 -3.223,5.359c-0.361,2.125 0.08,3.933 1.431,5.408c1.315,1.488 3.099,2.229 5.364,2.229c2.185,0 4.189,-0.741 5.997,-2.229c1.8,-1.475 2.871,-3.239 3.211,-5.263c0.361,-2.161 -0.08,-3.977 -1.431,-5.46m-22.261,0c-1.283,-1.487 -3.03,-2.233 -5.259,-2.233c-2.189,0 -4.194,0.746 -6.006,2.233c-1.804,1.483 -2.878,3.287 -3.231,5.404c-0.36,2.092 0.161,3.884 1.444,5.359c1.31,1.496 3.066,2.237 5.259,2.237c2.165,0 4.145,-0.741 5.953,-2.237c1.84,-1.511 2.935,-3.295 3.279,-5.359c0.361,-2.117 -0.16,-3.921 -1.439,-5.404m-0.28,67.023c-0.55,3.32 -1.315,5.637 -2.309,6.94c-0.983,1.246 -2.474,1.864 -4.478,1.864c-1.953,0 -3.215,-0.67 -3.809,-2.005c-0.609,-1.335 -0.637,-3.616 -0.08,-6.843l7.885,-47.657l-20.942,0l-8.23,49.425c-1.571,9.481 0.361,16.364 5.813,20.661c4.29,3.396 10.022,5.088 17.19,5.088c6.33,0 11.958,-1.54 16.889,-4.598c3.66,-2.293 6.434,-4.871 8.318,-7.701c1.889,-2.718 3.191,-6.254 3.917,-10.628l8.695,-52.247l-20.95,0l-7.929,47.701m241.086,33.839c-1.363,-1.512 -3.127,-2.269 -5.292,-2.269c-2.245,0 -4.249,0.729 -6.053,2.225c-1.804,1.483 -2.886,3.271 -3.247,5.367c-0.401,2.113 0,3.917 1.443,5.4c1.323,1.488 3.087,2.229 5.372,2.229c2.165,0 4.169,-0.741 5.973,-2.229c1.804,-1.483 2.886,-3.243 3.207,-5.271c0.401,-2.161 0,-3.969 -1.403,-5.452m-22.289,0c-1.243,-1.492 -3.007,-2.225 -5.252,-2.225c-2.204,0 -4.169,0.733 -5.973,2.225c-1.844,1.483 -2.886,3.283 -3.247,5.412c-0.401,2.084 0,3.872 1.443,5.355c1.323,1.492 3.047,2.233 5.252,2.233c2.165,0 4.169,-0.741 5.973,-2.233c1.804,-1.515 2.926,-3.295 3.247,-5.355c0.401,-2.129 0,-3.929 -1.443,-5.412m-0.401,67.043c-0.561,3.287 -1.323,5.613 -2.325,6.935c-0.962,1.243 -2.445,1.844 -4.49,1.844c-1.924,0 -3.207,-0.641 -3.808,-2.004c-0.602,-1.323 -0.602,-3.608 0,-6.855l7.937,-47.629l-20.962,0l-8.218,49.433c-1.58,9.461 0.361,16.356 5.805,20.645c4.293,3.368 10.026,5.092 17.202,5.092c6.293,0 11.946,-1.564 16.877,-4.611c3.648,-2.285 6.414,-4.85 8.298,-7.696c1.884,-2.726 3.207,-6.254 3.929,-10.624l8.699,-52.239l-20.926,0l-7.938,47.709m-275.799,-126.743c-0.36,2.009 -1.318,3.568 -2.962,4.679c-1.652,1.118 -3.728,1.667 -6.234,1.667l-1.403,0l2.109,-12.66c0.501,-0.04 0.938,-0.04 1.287,-0.08l0.882,0c4.922,0 7.035,2.133 6.321,6.414m-11.533,21.873c2.718,0 4.751,0.637 6.089,1.92c1.343,1.283 1.829,3.058 1.452,5.323c-0.401,2.273 -1.464,4.081 -3.235,5.428c-1.792,1.355 -3.981,2.021 -6.595,2.021l-0.75,0c-0.28,0 -0.645,-0.04 -1.05,-0.08l2.433,-14.596l1.656,0l0,-0.016Zm32.464,-22.694c1.034,-6.214 -0.361,-11.293 -4.15,-15.226c-3.756,-3.816 -10.178,-5.725 -19.294,-5.725l-24.366,0l-12.279,73.851l29.333,0c7.007,0 12.968,-1.936 17.907,-5.837c4.959,-3.86 7.966,-8.952 9.024,-15.298c0.838,-5.047 0.201,-8.899 -1.92,-11.581c-2.121,-2.682 -5.853,-4.402 -11.221,-5.167c9.774,-0.766 15.426,-5.769 16.961,-15.017m83.781,52.9l3.131,-18.846c0.501,-2.906 0.854,-6.289 1.114,-10.142c0.241,-3.864 0.401,-8.39 0.401,-13.59c0.241,2.301 0.641,4.711 1.098,7.252c0.449,2.534 0.987,5.256 1.592,8.15l5.893,27.176l20.18,0l12.287,-73.851l-20.184,0l-2.766,16.601c-0.505,3.087 -0.946,6.919 -1.299,11.473c-0.361,4.566 -0.686,10.054 -0.982,16.468l-1.079,-6.51c-0.4,-2.586 -0.833,-4.859 -1.214,-6.843c-0.401,-1.976 -0.722,-3.736 -1.038,-5.263l-6.038,-26.018l-19.034,0l-12.279,73.855l20.189,0m81.323,-36.132c-1.989,11.959 -6.767,18.112 -14.328,18.465l6.254,-37.611l0.653,0c3.251,0 5.541,1.728 6.879,5.176c1.339,3.419 1.516,8.061 0.542,13.97m21.527,-0.737c2.065,-12.452 -0.08,-22.129 -6.53,-29.044c-4.879,-5.292 -12.492,-7.942 -22.843,-7.942l-18.079,0l-12.291,73.855l19.599,0c10.811,0 19.43,-2.842 25.829,-8.515c7.504,-6.667 12.267,-16.123 14.315,-28.354m20.437,36.869l3.135,-18.85c0.501,-2.906 0.854,-6.29 1.106,-10.142c0.241,-3.865 0.401,-8.386 0.401,-13.59c0.321,2.301 0.65,4.71 1.099,7.252c0.453,2.538 0.986,5.256 1.599,8.154l5.889,27.176l20.172,0l12.308,-73.855l-20.193,0l-2.766,16.601c-0.513,3.087 -0.946,6.923 -1.307,11.477c-0.361,4.566 -0.677,10.05 -0.974,16.464l-1.082,-6.506c-0.453,-2.586 -0.834,-4.863 -1.219,-6.847c-0.401,-1.972 -0.722,-3.732 -1.03,-5.26l-6.034,-25.929l-19.029,0l-12.275,73.855l20.18,0m76.356,-73.855l-20.966,0l-12.267,73.855l20.926,0l12.307,-73.855m11.505,73.855c7.136,0 13.39,-2.273 18.802,-6.823c5.412,-4.554 8.699,-10.335 9.861,-17.35c0.682,-4.125 0.401,-7.725 -1.082,-10.796c-1.403,-3.071 -4.089,-6.074 -8.018,-9l-2.926,-2.253c-2.566,-1.88 -3.648,-3.764 -3.327,-5.68c0.4,-1.167 0.881,-2.165 2.084,-2.995c1.203,-0.862 2.566,-1.295 4.209,-1.295c2.085,0 4.129,0.738 6.054,2.181c1.924,1.451 3.527,3.435 4.81,5.953l3.728,-22.137c-4.69,-2.437 -9.5,-3.66 -14.471,-3.66c-5.613,0 -10.624,1.54 -15.114,4.614c-1.603,1.075 -3.086,2.322 -4.409,3.721c-1.363,1.403 -2.566,2.95 -3.688,4.638c-2.285,3.636 -3.729,7.107 -4.25,10.439c-0.401,1.936 -0.401,3.784 0,5.544c0,1.748 0.602,3.448 1.363,5.083c0.722,1.664 1.764,3.259 3.127,4.819c1.323,1.551 3.007,3.115 5.011,4.69l3.047,2.437c2.165,1.816 3.087,3.677 2.766,5.585c-0.401,1.327 -0.962,2.429 -2.245,3.303c-1.283,0.886 -2.846,1.315 -4.65,1.315c-4.771,0 -8.78,-2.678 -12.027,-8.038l-3.768,22.702c5.292,2.001 10.383,3.003 15.314,3.003m95.81,-48.515c-1.082,6.322 -3.527,9.477 -7.416,9.477c-4.129,0 -5.612,-3.131 -4.61,-9.377c1.082,-6.622 3.688,-9.93 7.737,-9.93c3.929,0 5.372,3.272 4.289,9.83m16.236,-18.104c-3.888,-4.83 -9.621,-7.236 -17.238,-7.236c-8.017,0 -14.953,2.422 -20.725,7.272c-5.813,4.895 -9.301,11.189 -10.624,18.858c-1.042,6.366 0,11.814 2.806,16.348c3.007,4.442 7.136,6.654 12.508,6.654c2.125,0 4.69,-0.689 7.697,-2.108c-1.002,1.162 -1.884,2.213 -2.686,3.191c-0.802,0.974 -1.523,1.856 -2.125,2.646l-15.915,20.994l22.49,0l9.22,-12.684c10.864,-14.873 16.997,-26.514 18.401,-34.913c1.282,-7.853 0,-14.199 -3.809,-19.022m43.336,30.046c-1.123,6.495 -2.446,11.261 -4.049,14.32c-1.684,3.059 -3.689,4.586 -6.014,4.586c-4.409,0 -5.412,-6.987 -3.126,-20.974c1.964,-11.698 5.171,-17.551 9.661,-17.551c4.53,0 5.692,6.535 3.528,19.619m18.079,-27.356c-3.688,-6.614 -9.821,-9.926 -18.4,-9.926c-8.459,0 -15.715,3.267 -21.768,9.79c-6.093,6.506 -9.982,15.334 -11.826,26.51c-2.005,11.826 -1.082,21.034 2.806,27.621c3.889,6.622 10.263,9.93 19.042,9.93c8.138,0 15.153,-3.271 21.086,-9.83c5.893,-6.594 9.822,-15.47 11.666,-26.614c1.964,-11.694 1.042,-20.854 -2.606,-27.481m-507.396,128.098c-1.988,11.986 -6.763,18.12 -14.323,18.481l6.253,-37.603l0.654,0c3.243,0 5.544,1.724 6.875,5.171c1.351,3.408 1.523,8.058 0.541,13.951m21.535,-0.722c2.065,-12.427 -0.12,-22.128 -6.53,-29.064c-4.883,-5.271 -12.499,-7.917 -22.846,-7.917l-18.084,0l-12.279,73.862l19.595,0c10.808,0 19.419,-2.846 25.821,-8.538c7.512,-6.655 12.279,-16.116 14.323,-28.343m34.821,-36.981l-20.95,0l-12.283,73.862l20.95,0l12.283,-73.862m36.276,73.862l2.938,-17.678l-17.987,0l1.728,-10.383l16.127,0l2.934,-17.679l-16.123,0l1.744,-10.463l17.983,0l2.943,-17.659l-38.938,0l-12.287,73.862l38.938,0m73.83,-27.179l7.749,0c-0.24,1.443 -0.641,2.766 -1.19,3.928c-0.546,1.163 -1.195,2.165 -1.953,3.007c-0.757,0.802 -1.619,1.443 -2.597,1.884c-0.983,0.441 -2.029,0.682 -3.127,0.682c-2.786,0 -4.578,-1.363 -5.4,-4.089c-0.822,-2.726 -0.726,-7.096 0.24,-13.149c2.358,-14.192 6.423,-21.287 12.179,-21.287c1.644,0 2.895,0.681 3.756,2.044c0.862,1.363 1.251,3.207 1.163,5.533l21.475,-7.096c-3.515,-12.107 -11.401,-18.14 -23.652,-18.14c-9.248,0 -17.085,3.347 -23.511,9.962c-6.431,6.655 -10.612,15.755 -12.528,27.3c-1.896,11.425 -0.742,20.365 3.468,26.899c4.249,6.454 11.048,9.701 20.388,9.701c9.505,0 17.242,-3.327 23.199,-9.941c5.465,-6.054 9.341,-15.996 11.634,-29.786l0.501,-2.966l-29.228,0l-2.586,15.514m71.594,-22.891c-0.453,2.726 -1.624,4.931 -3.52,6.695c-1.904,1.764 -4.061,2.646 -6.474,2.646l-1.407,0l2.938,-17.599l0.75,0c6.053,0 8.631,2.726 7.713,8.258m20.661,0.842c1.387,-8.338 -0.521,-14.792 -5.728,-19.322c-4.105,-3.544 -10.868,-5.312 -20.321,-5.312l-21.447,0l-12.283,73.862l20.841,0l4.302,-25.856l0.665,-4.851c0.201,1.002 0.361,1.884 0.502,2.606c0.16,0.721 0.2,1.323 0.24,1.764l5.977,26.337l22.662,0l-10.475,-30.707c8.575,-3.408 13.602,-9.581 15.089,-18.521m82.197,49.228l3.127,-18.881c0.481,-2.886 0.842,-6.254 1.122,-10.102c0.401,-3.889 0.401,-8.419 0.401,-13.59c0.401,2.285 0.642,4.69 1.083,7.216c0.441,2.565 0.962,5.251 1.603,8.178l5.893,27.179l20.165,0l12.307,-73.862l-20.205,0l-2.766,16.617c-0.521,3.086 -0.922,6.895 -1.283,11.465c-0.401,4.57 -0.681,10.062 -1.002,16.476l-1.042,-6.534c-0.481,-2.566 -0.842,-4.851 -1.243,-6.815c-0.401,-2.005 -0.722,-3.769 -1.042,-5.292l-6.014,-25.917l-19.041,0l-12.267,73.862l20.164,0m82.101,0l2.886,-17.678l-17.96,0l1.724,-10.383l16.156,0l2.846,-17.679l-16.035,0l1.724,-10.463l17.959,0l2.967,-17.659l-38.926,0l-12.267,73.862l38.926,0m28.863,0l3.087,-18.881c0.521,-2.886 0.882,-6.254 1.122,-10.102c0.481,-3.889 0.481,-8.419 0.481,-13.59c0,2.285 0.682,4.69 1.123,7.216c0.481,2.565 1.002,5.251 1.603,8.178l5.853,27.179l20.205,0l12.267,-73.862l-20.205,0l-2.726,16.617c-0.521,3.086 -0.922,6.895 -1.323,11.465c-0.481,4.57 -0.641,10.062 -0.962,16.476l-1.082,-6.534c-0.521,-2.566 -0.802,-4.851 -1.203,-6.815c-0.481,-2.005 -0.761,-3.769 -1.042,-5.292l-6.013,-25.917l-19.042,0l-12.307,73.862l20.204,0" style="fill:#fff;fill-rule:nonzero;"/></svg>