<?xml version="1.0" encoding="UTF-8" standalone="no"?><!DOCTYPE svg PUBLIC "-//W3C//DTD SVG 1.1//EN" "http://www.w3.org/Graphics/SVG/1.1/DTD/svg11.dtd"><svg width="100%" height="100%" viewBox="0 0 1000 1000" version="1.1" xmlns="http://www.w3.org/2000/svg" xmlns:xlink="http://www.w3.org/1999/xlink" xml:space="preserve" xmlns:serif="http://www.serif.com/" style="fill-rule:evenodd;clip-rule:evenodd;stroke-linejoin:round;stroke-miterlimit:2;"><rect x="161" y="161" width="678" height="678" style="fill:#e2001a;"/><path id="S" d="M334.488,637.594l25.924,-39.882c-143.577,-79.765 -211.377,93.723 -81.759,115.659c63.812,9.97 7.976,63.811 -51.847,11.964l-25.924,43.871c147.565,97.712 243.283,-97.712 91.73,-111.671c-31.906,-1.994 -33.9,-51.847 41.876,-19.941Z" style="fill:#fff;fill-rule:nonzero;"/><path id="P" d="M380.353,579.765l0,209.382l59.823,0l0,-69.794l45.865,0c73.783,0 75.777,-141.582 0,-139.588l-105.688,0Zm59.823,45.864l23.93,0c25.923,0 25.923,49.853 0,49.853l-23.93,0l0,-49.853Z" style="fill:#fff;"/><path id="D" d="M555.835,579.765l0,209.382l91.73,0c117.653,1.994 117.653,-209.382 1.994,-209.382l-93.724,0Zm57.83,49.853l9.97,0c73.783,0 73.783,111.67 0,111.67l-9.97,0l0,-111.67Z" style="fill:#fff;"/></svg>