<?xml version="1.0" encoding="UTF-8" standalone="no"?><!DOCTYPE svg PUBLIC "-//W3C//DTD SVG 1.1//EN" "http://www.w3.org/Graphics/SVG/1.1/DTD/svg11.dtd"><svg width="100%" height="100%" viewBox="0 0 1000 1000" version="1.1" xmlns="http://www.w3.org/2000/svg" xmlns:xlink="http://www.w3.org/1999/xlink" xml:space="preserve" xmlns:serif="http://www.serif.com/" style="fill-rule:evenodd;clip-rule:evenodd;stroke-linejoin:round;stroke-miterlimit:2;"><rect x="0" y="0" width="1000" height="1000" style="fill:#e2001a;"/><g><path id="S" d="M304.433,428.368l37.84,-58.215c-209.574,-116.429 -308.539,136.805 -119.34,168.823c93.143,14.554 11.642,93.144 -75.68,17.465l-37.839,64.036c215.395,142.627 355.11,-142.626 133.894,-163.001c-46.572,-2.911 -49.483,-75.68 61.125,-29.108Z" style="fill:#fff;fill-rule:nonzero;"/><path id="P" d="M371.38,343.957l0,305.628l87.323,0l0,-101.876l66.947,0c107.697,0 110.608,-206.663 0,-203.752l-154.27,0Zm87.323,66.947l34.929,0c37.839,0 37.839,72.768 0,72.768l-34.929,0l0,-72.768Z" style="fill:#fff;"/><path id="D" d="M627.526,343.957l0,305.628l133.894,0c171.734,2.91 171.734,-305.628 2.911,-305.628l-136.805,0Zm84.411,72.768l14.554,0c107.697,0 107.697,163.002 0,163.002l-14.554,0l0,-163.002Z" style="fill:#fff;"/></g></svg>