<?xml version="1.0" standalone="no"?>
<!DOCTYPE svg PUBLIC "-//W3C//DTD SVG 20010904//EN"
 "http://www.w3.org/TR/2001/REC-SVG-20010904/DTD/svg10.dtd">
<svg version="1.0" xmlns="http://www.w3.org/2000/svg"
 width="1200.000000pt" height="1200.000000pt" viewBox="0 0 1200.000000 1200.000000"
 preserveAspectRatio="xMidYMid meet">
<metadata>
Created by potrace 1.11, written by Peter Selinger 2001-2013
</metadata>
<g transform="translate(0.000000,1200.000000) scale(0.100000,-0.100000)"
fill="#000000" stroke="none">
<path d="M5588 9325 c-2 -2 -46 -6 -98 -10 -130 -9 -187 -14 -240 -20 -25 -3
-58 -7 -75 -9 -55 -7 -200 -27 -220 -31 -496 -87 -958 -224 -1370 -408 -72
-32 -428 -210 -455 -227 -8 -5 -67 -40 -130 -76 -260 -152 -562 -367 -785
-558 -208 -179 -467 -433 -610 -601 -43 -49 -89 -103 -104 -120 -47 -54 -194
-247 -269 -353 -299 -426 -541 -891 -702 -1347 -60 -170 -148 -474 -175 -605
-27 -132 -36 -179 -49 -255 -8 -49 -18 -106 -21 -125 -18 -111 -29 -202 -40
-330 -3 -41 -8 -91 -10 -110 -3 -19 -7 -120 -11 -225 l-6 -190 1665 0 c916 0
1669 3 1673 8 4 4 8 22 9 40 3 53 16 171 20 177 2 3 6 27 9 53 11 93 87 361
131 462 179 411 399 704 726 968 200 161 515 323 770 396 325 93 596 114 949
75 92 -10 288 -54 390 -87 615 -200 1108 -627 1385 -1201 40 -83 75 -160 78
-171 3 -11 15 -45 26 -75 56 -145 109 -396 127 -590 3 -35 6 -65 7 -66 1 -1
569 -5 1262 -9 693 -3 1448 -8 1679 -9 l419 -2 -7 205 c-3 113 -8 229 -11 256
-7 80 -15 157 -20 195 -2 19 -7 58 -10 85 -21 185 -84 480 -159 750 -22 80
-97 315 -113 355 -4 8 -7 17 -7 20 -2 9 -28 75 -47 117 -11 24 -19 46 -19 50
0 18 -142 333 -211 469 -76 149 -190 351 -254 449 -18 28 -53 82 -78 120 -248
383 -593 786 -942 1098 -49 44 -106 94 -125 111 -60 54 -270 218 -380 297
-100 72 -385 259 -394 259 -2 0 -48 26 -103 58 -250 148 -639 325 -949 432
-118 40 -396 124 -444 134 -27 5 -25 5 -155 36 -80 19 -181 39 -284 56 -18 3
-43 8 -55 10 -26 6 -154 23 -221 30 -27 3 -55 7 -62 9 -6 2 -56 7 -110 10 -54
4 -109 9 -123 12 -27 5 -667 13 -672 8z"/>
<path d="M4715 4353 c4 -10 24 -79 45 -153 21 -74 57 -200 80 -280 23 -80 45
-158 50 -175 43 -160 123 -422 132 -434 64 -85 125 -122 212 -126 70 -4 121
11 172 50 72 55 85 85 193 446 57 189 110 364 118 389 8 25 16 52 18 60 4 16
33 113 58 193 l15 47 -176 -2 -176 -3 -49 -155 c-26 -85 -68 -220 -93 -300
-25 -80 -49 -156 -53 -170 -10 -30 2 -65 -114 340 l-82 285 -179 3 c-167 2
-178 1 -171 -15z"/>
<path d="M6054 4356 c-37 -16 -76 -52 -94 -85 -8 -15 -14 -67 -15 -133 l-1
-108 508 0 c405 0 508 3 502 13 -4 6 -55 83 -112 170 l-105 157 -326 0 c-249
-1 -333 -4 -357 -14z"/>
<path d="M6111 3960 l-84 -5 123 -115 c68 -63 159 -149 202 -190 44 -41 84
-76 89 -78 5 -2 9 -8 9 -13 0 -5 -124 -10 -285 -11 l-285 -3 112 -168 113
-167 372 2 371 3 39 31 c57 47 75 84 78 166 3 94 -7 128 -63 196 -57 70 -36
51 -230 215 l-162 138 -158 2 c-86 1 -195 0 -241 -3z"/>
</g>
</svg>
