<?xml version="1.0" encoding="UTF-8" standalone="no"?><!DOCTYPE svg PUBLIC "-//W3C//DTD SVG 1.1//EN" "http://www.w3.org/Graphics/SVG/1.1/DTD/svg11.dtd"><svg width="100%" height="100%" viewBox="0 0 1000 1000" version="1.1" xmlns="http://www.w3.org/2000/svg" xmlns:xlink="http://www.w3.org/1999/xlink" xml:space="preserve" xmlns:serif="http://www.serif.com/" style="fill-rule:evenodd;clip-rule:evenodd;stroke-linejoin:round;stroke-miterlimit:2;"><g><g><path id="path12458" d="M857.904,544.459l60.512,95.816l-60.735,96.039l-61.314,-95.637l61.537,-96.218" style="fill:#0c87d1;fill-rule:nonzero;"/><path id="path12462" d="M683.274,654.683c4.011,4.149 9.001,5.71 15.195,4.461c4.768,-0.982 8.556,3.791 8.511,7.36c-0.046,3.613 -2.986,8.029 -9.046,8.475c-7.397,0.58 -11.451,1.963 -13.68,3.435c-2.896,1.829 -7.53,8.163 -8.956,12.401c0,0.089 2.584,0.312 3.921,0.58c-1.069,3.39 -0.935,8.654 -0.535,11.241c1.337,-1.294 2.718,-2.498 4.278,-3.524c-0.802,1.65 -1.381,6.914 -1.292,9.501c1.604,-1.294 3.386,-2.364 5.213,-3.301c-1.604,3.078 -2.272,8.252 -2.272,8.342c1.782,-0.313 3.564,-0.446 5.391,-0.446c-3.386,1.249 -4.857,3.345 -5.124,5.531c-2.317,1.115 -3.921,3.524 -3.921,6.29c0,3.256 2.228,5.977 5.213,6.735c-0.446,-1.338 -0.222,-3.747 0.446,-4.773c0.491,-0.58 1.159,-0.981 1.916,-1.07c1.382,0.446 4.1,0.267 6.283,-1.562c4.055,2.186 6.773,6.468 6.773,11.42l0,0.535c3.565,-2.186 6.016,-6.066 6.194,-10.483c5.125,1.517 5.927,7.093 4.322,9.948c3.12,-1.874 5.259,-5.264 5.259,-9.189c0,-1.963 -0.535,-3.792 -1.471,-5.398c2.718,1.205 4.813,3.658 5.525,6.602c0.491,-1.293 0.802,-2.676 0.802,-4.193c0,-5.799 -4.366,-10.572 -10.026,-11.241c-1.47,-0.937 -3.252,-1.517 -5.168,-1.517c-1.827,0 -3.521,0.491 -4.947,1.339l-4.901,-16.594c1.559,1.115 5.213,2.899 5.302,2.944c0.312,-2.721 1.025,-5.442 2.139,-8.119c5.347,3.837 12.031,4.684 12.076,4.684c-0.223,-1.65 -0.356,-3.345 -0.267,-5.04c5.614,3.479 12.789,3.613 12.878,3.613c-1.471,-5.264 -0.847,-10.037 -0.134,-14.096c0.713,-4.104 1.203,-6.602 1.293,-6.914c0.355,-0.045 2.807,-0.312 4.5,1.204c1.738,1.472 1.56,5.442 1.337,7.271c-1.069,7.628 0.401,24.088 0.401,24.177c2.005,-0.981 4.144,-1.695 6.372,-2.23c-0.178,2.632 0.535,7.137 0.58,7.226c1.381,-0.758 2.852,-1.383 4.367,-1.918c0.091,1.294 0.267,2.587 0.49,3.836c0,0.045 0,0.045 0.046,0.089c-1.025,0.937 -1.738,2.231 -1.916,3.703c-2.317,1.115 -3.922,3.524 -3.922,6.289c0,3.212 2.229,5.978 5.214,6.736c-0.401,-0.981 -0.267,-3.658 0.491,-4.818c0.446,-0.579 1.114,-0.936 1.871,-1.07c1.203,0.535 4.59,0.223 6.283,-1.517c4.055,2.186 6.818,6.468 6.818,11.375c0,0.178 -0.046,0.401 -0.046,0.58c3.565,-2.186 6.016,-6.067 6.194,-10.527c2.941,0.847 5.08,3.568 5.08,6.78c0,1.16 -0.267,2.23 -0.758,3.167c3.164,-1.829 5.258,-5.264 5.258,-9.144c0,-2.008 -0.535,-3.837 -1.47,-5.398c2.762,1.204 4.812,3.613 5.525,6.602c0.491,-1.294 0.802,-2.721 0.802,-4.193c0,-5.799 -4.367,-10.572 -9.981,-11.241c-1.515,-0.982 -3.298,-1.517 -5.214,-1.517c-1.47,0 -2.896,0.312 -4.144,0.892c0,0 -5.971,-6.289 -9.625,-13.56c1.961,-0.937 5.749,-3.613 5.838,-3.658c-1.827,-1.249 -3.476,-2.676 -5.036,-4.371c3.387,0 9.313,-2.275 9.402,-2.32c-1.782,-2.141 -3.965,-5.576 -4.723,-7.806c2.184,-0.625 4.412,-0.937 6.595,-1.026c0,-1.874 -7.174,-13.115 -13.992,-18.378c-9.847,-7.628 -18.67,-12.401 -18.67,-12.401l1.114,-6.736c2.05,1.472 4.322,2.721 6.818,3.658c0.091,0.045 0.178,0.045 0.267,0.089c0.091,-2.007 0.446,-4.059 0.98,-6.022l4.233,2.766c-0.046,0.847 0.091,1.784 0.49,2.587c0.356,0.848 0.891,1.517 1.56,2.097c-0.046,0.267 -0.091,0.535 -0.091,0.847c-0.134,3.212 2.361,5.933 5.57,6.067c1.024,0.044 1.96,-0.179 2.807,-0.58c-2.184,-0.669 -3.743,-2.677 -3.788,-5.041c0.535,-0.089 1.069,-0.223 1.604,-0.446c0.267,-0.134 0.535,-0.267 0.802,-0.446c0.936,1.428 2.496,2.275 4.144,2.364c0.092,0 0.223,0 0.356,0.045c1.471,0.089 2.897,0.981 3.565,2.453c0.669,1.517 0.356,3.167 -0.624,4.372c0.313,-0.089 0.58,-0.179 0.847,-0.312c3.386,-1.517 4.901,-5.487 3.386,-8.877c-0.49,-1.026 -1.159,-1.874 -1.961,-2.543c0.046,-0.58 0,-1.115 -0.133,-1.695c0.267,-0.178 0.535,-0.357 0.846,-0.491c2.674,-1.204 5.838,0 7.041,2.677c0.267,0.624 0.401,1.249 0.446,1.873c1.604,-1.962 2.094,-4.773 0.935,-7.271c-1.158,-2.631 -3.743,-4.148 -6.416,-4.148c0.091,-0.402 0.091,-0.848 0.091,-1.249c0.222,-0.134 0.446,-0.268 0.668,-0.357c2.362,-1.071 5.125,-0.268 6.551,1.829c-0.134,-0.803 -0.356,-1.606 -0.669,-2.364c-1.782,-3.881 -6.015,-5.888 -10.026,-4.907c-1.782,-0.981 -3.965,-1.115 -5.971,-0.223c-1.336,0.624 -2.406,1.65 -3.074,2.855l-4.144,-2.721c1.693,-0.759 5.08,-2.989 5.169,-3.034c-0.98,-0.713 -1.916,-1.516 -2.808,-2.408c2.674,-0.937 6.506,-3.569 6.551,-3.613c-1.159,-0.893 -2.273,-1.919 -3.298,-2.989c2.852,-1.472 6.729,-6.29 6.773,-6.334c-2.228,-0.848 -4.322,-2.008 -6.327,-3.435l3.297,-2.944c0.758,0.268 1.604,0.446 2.451,0.357c0.891,-0.045 1.738,-0.312 2.451,-0.714c0.267,0.178 0.49,0.268 0.757,0.402c2.986,1.249 6.417,-0.134 7.665,-3.078c0.401,-0.937 0.535,-1.874 0.446,-2.811c-1.382,1.785 -3.833,2.543 -6.016,1.74c0.134,-0.535 0.178,-1.071 0.134,-1.65c0,-0.313 -0.046,-0.625 -0.134,-0.893c1.693,-0.401 3.03,-1.516 3.699,-3.033c0.045,-0.134 0.091,-0.223 0.133,-0.357c0.624,-1.338 1.961,-2.364 3.565,-2.453c1.649,-0.089 3.119,0.803 3.921,2.141l0,-0.892c-0.222,-3.703 -3.431,-6.557 -7.129,-6.334c-1.115,0.044 -2.184,0.401 -3.075,0.936c-0.491,-0.223 -1.025,-0.401 -1.604,-0.49c-0.091,-0.313 -0.134,-0.625 -0.178,-0.982c-0.134,-2.944 2.094,-5.442 4.99,-5.62c0.713,-0.045 1.337,0.044 1.961,0.267c-1.292,-2.23 -3.743,-3.657 -6.461,-3.479c-2.852,0.179 -5.214,2.007 -6.149,4.55c-0.356,-0.223 -0.758,-0.401 -1.159,-0.58c-0.045,-0.223 -0.091,-0.491 -0.091,-0.714c-0.178,-2.631 1.559,-4.862 4.01,-5.486c-0.757,-0.179 -1.604,-0.268 -2.451,-0.179c-4.233,0.223 -7.619,3.524 -8.109,7.583c-1.516,1.339 -2.451,3.301 -2.362,5.487c0.091,1.517 0.668,2.855 1.559,3.926c0,0 -6.505,5.754 -6.55,5.754c0.624,-1.874 1.203,-6.067 1.203,-6.156c-10.917,1.784 -20.096,-2.721 -20.096,-2.721c1.337,-0.044 8.11,-3.122 8.555,-3.345c0.178,-0.848 0.356,-1.696 0.446,-2.543c2.852,-1.427 5.882,0.401 9.67,-1.294c3.743,-1.695 6.105,-5.932 4.812,-11.241c-0.846,-3.345 -4.144,-5.709 -6.862,-5.843c-2.763,-0.089 -4.367,0.669 -4.768,0.892c2.585,0.491 4.768,2.632 4.768,6.423c0,3.48 -4.188,5.353 -5.659,5.353c0.446,-1.383 0.446,-6.245 -0.091,-7.851c-3.52,-0.892 -7.977,-4.371 -10.294,-6.78c-1.425,-7.94 -7.753,-14.096 -8.6,-14.854c-0.133,1.517 -0.891,4.773 -0.935,4.951c-4.189,-4.103 -12.789,-4.773 -15.373,-4.728c1.871,2.453 3.342,5.174 4.367,8.074c-7.887,-3.301 -16.086,-1.695 -18.582,-0.937c2.629,2.008 4.902,4.461 6.684,7.227c-7.709,0.401 -14.348,5.352 -16.309,7.092c3.431,0.714 6.729,2.052 9.67,3.97c-5.57,3.167 -9.625,11.152 -9.67,11.241c2.719,0.446 7.709,2.097 9.893,3.569c-2.897,0.357 -5.793,0.267 -8.645,-0.223c1.159,2.364 6.328,10.036 11.719,12.222c-2.941,0.134 -5.882,-0.179 -8.733,-0.937c0.979,2.454 4.545,9.68 11.273,13.561c-2.05,0.312 -4.144,0.357 -6.238,0.134c1.381,2.23 6.818,9.144 13.19,11.553c-2.139,0.758 -4.278,1.293 -6.506,1.561c1.782,1.918 7.441,6.602 12.031,7.628c-1.783,1.517 -3.699,2.855 -5.793,3.925c2.317,1.16 7.932,2.543 8.11,2.588l-0.533,3.256c-3.252,1.606 -5.57,3.658 -7.931,7.226c-1.827,2.677 -6.684,4.015 -9.67,3.257c-3.386,-0.848 -3.698,-3.613 -2.985,-6.111c0.535,-2.498 2.183,-7.093 3.921,-10.706c2.54,-5.353 1.337,-11.152 -1.025,-14.364c-3.743,-5.085 -6.417,-5.352 -11.274,-5.442c-5.882,-0.134 -10.071,-5.531 -8.021,-11.241c1.069,-3.033 1.292,-6.825 -0.579,-10.884c-1.069,-2.364 -3.565,-6.334 -8.6,-6.245c-5.036,0.134 -8.912,4.283 -8.912,8.342c0,3.881 2.941,7.092 6.684,7.538c-0.713,-0.936 -1.115,-2.096 -1.115,-3.39c-0.045,-0.937 0.312,-4.148 2.897,-4.014c2.584,0.133 3.787,3.256 1.737,7.806c-2.228,5.62 0,9.903 1.56,11.999c0,0 1.337,1.918 4.59,4.55c-1.649,1.606 -3.788,4.639 -1.649,9.278c2.273,4.862 0.222,7.583 -1.782,7.583c-1.961,0 -2.808,-1.828 -2.897,-4.014c-0.045,-1.249 0.446,-2.454 1.159,-3.346c-3.788,0.402 -6.684,3.613 -6.684,7.494c0,4.461 4.367,8.342 8.867,8.342c4.055,0 6.996,-2.587 8.645,-6.245c2.139,-4.818 0.935,-7.94 0,-11.42c-0.936,-3.434 1.693,-4.906 4.901,-4.282c3.03,0.58 5.08,4.595 3.521,8.119c-0.847,1.962 -3.209,6.914 -3.788,8.743c-2.05,6.155 -2.451,12.802 0.713,16.058" style="fill:#7fb8e6;fill-rule:nonzero;"/><path id="path12466" d="M238.969,703.706c-1.871,6.914 -6.461,22.928 -6.461,22.928c-11.586,4.595 -28.429,8.253 -52.848,8.253c-67.107,0 -98.076,-38.273 -98.076,-84.129c0,-52.235 37.698,-106.611 122.183,-106.611c11.585,0 24.285,1.338 35.559,3.791c9.491,2.052 19.918,6.067 28.785,10.885l-11.051,42.644c-5.525,-4.327 -20.185,-14.899 -44.871,-14.899c-46.075,0 -63.275,39.879 -63.275,62.405c0,27.122 18.67,44.251 47.634,44.251c22.28,0 38.455,-8.297 48.214,-13.65c0,0 -3.699,17.218 -5.793,24.132m22.102,-22.749c4.411,3.033 6.773,4.505 13.278,7.851c14.304,6.914 36.317,8.029 45.407,8.029c26.335,0 32.172,-11.42 32.172,-18.111c0,-9.456 -13.19,-14.809 -28.474,-21.723l-10.739,-4.862c-16.888,-7.673 -40.46,-21.055 -40.46,-45.723c0,-21.01 12.833,-34.659 18.359,-39.298c19.829,-17.397 48.124,-21.1 71.83,-21.1c27.672,0 58.863,11.42 70.895,16.014l-11.051,40.459c-3.921,-3.078 -7.843,-5.576 -12.031,-7.851c-12.031,-6.691 -31.861,-11.91 -40.327,-11.91c-15.908,0 -26.468,6.959 -26.468,15.657c0,7.672 7.307,13.561 28.117,22.259l6.506,2.81c15.239,6.647 45.852,20.787 45.852,48.443c0,36.623 -37.609,64.19 -100.661,64.19c-25.845,0 -67.419,-5.665 -75.083,-9.278l12.878,-45.856m385.04,-129.851l-6.817,32.563l-10.784,48.042c-11.808,52.948 -19.249,74.226 -40.326,88.723c-18.448,12.891 -43.446,15.657 -65.147,15.657c-24.196,0 -43.802,-3.435 -56.323,-10.17c-27.538,-14.23 -29.855,-37.649 -30.167,-44.607c-0.669,-15.256 2.896,-32.564 6.194,-47.552l11.674,-50.361l7.798,-32.295l61.181,0l-9.536,43.135l-9.268,40.815c-5.125,23.776 -6.64,33.857 -6.239,42.644c0.624,15.256 14.17,18.066 24.865,18.869c10.471,0.848 26.379,-0.535 31.815,-14.229c2.273,-5.799 3.922,-12.089 7.977,-26.809c8.02,-29.486 16.977,-69.543 16.977,-69.543l8.199,-34.882l57.927,0" style="fill:#0c87d1;fill-rule:nonzero;"/></g><g><path d="M323.959,330.566l9.11,-55.801c-324.56,-79.717 -335.948,299.506 -28.47,223.206l7.971,-55.802c-227.761,50.108 -169.682,-174.237 11.389,-111.603Z" style="fill:#ba261d;fill-rule:nonzero;"/><path d="M370.65,269.071l-36.442,235.733l163.988,0c129.824,0 176.515,-235.733 13.666,-235.733l-141.212,0Zm70.606,51.246l50.107,0c69.467,0 47.83,133.24 -15.943,133.24l-53.524,0l19.36,-133.24Z" style="fill:#ba261d;fill-rule:nonzero;"/><path d="M657.629,269.071l83.133,0l-20.499,133.24c-10.249,59.218 83.133,78.578 97.938,-1.139l19.36,-132.101l80.855,0l-21.637,141.212c-28.471,144.628 -284.702,124.13 -257.371,-11.388l18.221,-129.824Z" style="fill:#ba261d;fill-rule:nonzero;"/></g></g></svg>