<?xml version="1.0" encoding="UTF-8" standalone="no"?><!DOCTYPE svg PUBLIC "-//W3C//DTD SVG 1.1//EN" "http://www.w3.org/Graphics/SVG/1.1/DTD/svg11.dtd"><svg width="100%" height="100%" viewBox="0 0 1000 1000" version="1.1" xmlns="http://www.w3.org/2000/svg" xmlns:xlink="http://www.w3.org/1999/xlink" xml:space="preserve" xmlns:serif="http://www.serif.com/" style="fill-rule:evenodd;clip-rule:evenodd;stroke-linejoin:round;stroke-miterlimit:2;"><path d="M928.638,576.209l0,-141.862l-50.712,0l0,141.862l50.712,0Zm-62.776,0l0,-33.138l-54.689,0l0,-22.087l50.048,0l0,-31.411l-50.048,0l0,-22.088l54.691,0l0,-33.138l-104.407,0l0,141.862l104.405,0Zm-223.794,-108.724l29.824,0l0,108.724l50.713,0l0,-108.724l30.159,0l0,-33.138l-110.696,0l0,33.138Zm-82.783,108.724l0,-58.68l2.814,0c7.525,0 12.593,1.317 15.197,3.938c2.6,2.618 3.904,8.338 3.904,17.143c0,2.262 -0.1,5.634 -0.283,10.104c-0.185,4.47 -0.277,7.807 -0.277,10.005c0,4.271 0.383,7.709 1.154,10.296c0.77,2.594 2.018,4.988 3.751,7.191l51.788,0c-2.016,-2.396 -3.46,-4.856 -4.322,-7.379c-0.858,-2.525 -1.283,-5.964 -1.283,-10.303c0,-0.515 0.03,-1.57 0.094,-3.151c0.063,-1.587 0.091,-2.932 0.091,-4.028c0,-19.171 -1.816,-31.242 -5.444,-36.234c-3.636,-4.983 -10.415,-8.093 -20.349,-9.322l0,-1.555c8.848,-1.682 15.468,-5.182 19.866,-10.497c4.39,-5.311 6.595,-12.439 6.595,-21.388c0,-13.151 -3.799,-22.772 -11.392,-28.866c-7.591,-6.088 -19.594,-9.139 -36.015,-9.139l-75.232,0l0,141.862l49.343,0l0,0.003Zm0.37,-114.594c0.559,0 1.373,-0.033 2.433,-0.094c1.064,-0.068 1.843,-0.099 2.349,-0.099c7.932,0 13.646,1.159 17.143,3.473c3.505,2.313 5.252,6.047 5.252,11.19c0,5.152 -1.717,8.835 -5.158,11.052c-3.437,2.215 -9.184,3.321 -17.24,3.321c-0.506,0 -1.285,-0.029 -2.351,-0.094c-1.058,-0.068 -1.875,-0.099 -2.431,-0.099l0.003,-28.65Zm-132.427,-4.576l2.516,0l10.445,69.812l-23.501,0l10.54,-69.812Zm-18.935,119.17l3.638,-21.749l32.918,0l3.729,21.749l51.195,0l-36.46,-141.862l-69.662,0l-36.396,141.862l51.038,0Zm-121.076,0l0,-44.869l27.169,0c16.537,0 28.581,-3.869 36.11,-11.602c7.531,-7.737 11.297,-20.049 11.297,-36.943c0,-17.213 -3.86,-29.599 -11.576,-37.138c-7.715,-7.54 -20.46,-11.31 -38.243,-11.31l-74.144,0l0,141.862l49.387,0Zm0,-112.522l3.024,0c7.437,0 12.826,1.553 16.164,4.649c3.333,3.096 5.009,8.093 5.009,14.996c0,6.841 -1.656,11.783 -4.958,14.812c-3.313,3.03 -8.71,4.548 -16.212,4.548l-3.023,0l0,-39.005l-0.004,0Z" style="fill:#111211;fill-rule:nonzero;"/><path d="M923.516,570.055l0,-141.857l-50.714,0l0,141.856l50.714,0l0,0.001Zm-62.779,0l0,-33.131l-54.692,0l0,-22.094l50.046,0l0,-31.407l-50.046,0l0,-22.091l54.692,0l0,-33.134l-104.407,0l0,141.856l104.407,0l0,0.001Zm-223.794,-108.723l29.824,0l0,108.723l50.71,0l0,-108.723l30.162,0l0,-33.134l-110.696,0l0,33.134Zm-82.785,108.723l0,-58.675l2.816,0c7.529,0 12.591,1.316 15.193,3.937c2.605,2.618 3.907,8.337 3.907,17.142c0,2.265 -0.098,5.637 -0.283,10.1c-0.183,4.473 -0.278,7.811 -0.278,10.01c0,4.273 0.384,7.708 1.155,10.297c0.772,2.595 2.017,4.986 3.75,7.186l51.788,0c-2.016,-2.393 -3.456,-4.849 -4.319,-7.375c-0.859,-2.523 -1.283,-5.96 -1.283,-10.301c0,-0.515 0.032,-1.57 0.091,-3.158c0.062,-1.581 0.092,-2.923 0.092,-4.028c0,-19.165 -1.819,-31.237 -5.448,-36.227c-3.633,-4.984 -10.412,-8.095 -20.349,-9.324l0,-1.551c8.847,-1.683 15.47,-5.186 19.87,-10.496c4.389,-5.311 6.592,-12.439 6.592,-21.39c0,-13.153 -3.801,-22.773 -11.391,-28.869c-7.591,-6.089 -19.596,-9.135 -36.012,-9.135l-75.235,0l0,141.856l49.344,0l0,0.001Zm0.37,-114.591c0.562,0 1.374,-0.032 2.437,-0.097c1.06,-0.062 1.841,-0.095 2.343,-0.095c7.935,0 13.651,1.161 17.146,3.475c3.503,2.315 5.253,6.043 5.253,11.19c0,5.152 -1.717,8.834 -5.157,11.049c-3.441,2.218 -9.18,3.322 -17.245,3.322c-0.502,0 -1.283,-0.031 -2.343,-0.093c-1.063,-0.065 -1.878,-0.1 -2.438,-0.1l0,-28.651l0.004,0Zm-132.427,-4.58l2.516,0l10.445,69.815l-23.5,0l10.539,-69.815Zm-18.933,119.171l3.642,-21.743l32.914,0l3.728,21.743l51.197,0l-36.463,-141.857l-69.662,0l-36.396,141.856l51.04,0l0,0.001Zm-121.077,0l0,-44.87l27.17,0c16.541,0 28.582,-3.865 36.108,-11.6c7.531,-7.735 11.297,-20.044 11.297,-36.941c0,-17.215 -3.855,-29.598 -11.576,-37.137c-7.716,-7.54 -20.46,-11.309 -38.243,-11.309l-74.142,0l0,141.856l49.386,0l0,0.001Zm0,-112.519l3.023,0c7.44,0 12.826,1.556 16.166,4.65c3.336,3.094 5.01,8.094 5.01,14.997c0,6.839 -1.659,11.776 -4.96,14.81c-3.311,3.028 -8.713,4.546 -16.214,4.546l-3.023,0l0,-39.003l-0.002,0Z" style="fill:#fff;fill-rule:nonzero;"/><path d="M187.443,472.339c0,-2.285 0.49,-4.003 1.465,-5.145c0.977,-1.148 2.445,-1.72 4.408,-1.72c2.091,0 3.662,0.572 4.706,1.72c1.049,1.142 1.57,2.86 1.57,5.145l0,8.79l-12.148,0l0,-8.79l-0.001,0Zm12.149,28.597l0,6.259c0,2.323 -0.454,4.029 -1.365,5.12c-0.909,1.088 -2.364,1.634 -4.364,1.634c-2.278,0 -3.92,-0.52 -4.917,-1.564c-1.003,-1.043 -1.5,-2.772 -1.5,-5.19l0,-13.052l29.824,0l0,-21.232c0,-7.641 -1.969,-13.341 -5.902,-17.089c-3.93,-3.748 -9.92,-5.623 -17.967,-5.623c-8.601,0 -14.936,1.711 -19,5.127c-4.07,3.42 -6.103,8.756 -6.103,16.011l0,37.495c0,7.153 2.055,12.337 6.174,15.564c4.11,3.22 10.77,4.83 19.964,4.83c7.909,0 13.693,-1.862 17.348,-5.579c3.655,-3.72 5.486,-9.586 5.486,-17.594l0,-5.117l-17.678,0Zm-43.864,-56.961l0,-20.184l-19.698,0l0,20.184l19.698,0Zm0,83.179l0,-74.694l-19.698,0l0,74.694l19.698,0Zm-84.366,-103.363l0,103.363l24.274,0c10.353,0 17.585,-1.55 21.681,-4.652c4.099,-3.099 6.151,-8.49 6.151,-16.165l0,-62.226c0,-7.386 -2.075,-12.62 -6.216,-15.699c-4.144,-3.08 -11.351,-4.621 -21.616,-4.621l-24.274,0Zm21.505,18.52c0.643,-0.02 1.571,-0.033 2.77,-0.033c2.961,0 4.99,0.507 6.099,1.521c1.109,1.011 1.661,2.812 1.661,5.402l0,52.259c0,2.546 -0.522,4.383 -1.558,5.515c-1.04,1.13 -2.789,1.695 -5.234,1.695c-0.14,0 -0.831,-0.032 -2.079,-0.107c-1.25,-0.071 -2.401,-0.13 -3.465,-0.177l0,-65.968c0.556,-0.045 1.155,-0.082 1.806,-0.107Z" style="fill:#111211;fill-rule:nonzero;"/><path d="M918.86,566.514l0,-140.134l-50.583,0l0,140.131l50.583,0l0,0.003Zm-62.617,0l0,-32.733l-54.552,0l0,-21.821l49.924,0l0,-31.027l-49.924,0l0,-21.821l54.552,0l0,-32.732l-104.144,0l0,140.131l104.144,0l0,0.003Zm-223.236,-107.402l29.749,0l0,107.402l50.586,0l0,-107.402l30.086,0l0,-32.732l-110.421,0l0,32.732Zm-82.577,107.402l0,-57.965l2.81,0c7.507,0 12.559,1.297 15.157,3.887c2.594,2.59 3.897,8.239 3.897,16.938c0,2.235 -0.099,5.566 -0.282,9.978c-0.19,4.418 -0.28,7.714 -0.28,9.886c0,4.224 0.383,7.614 1.15,10.172c0.769,2.565 2.016,4.928 3.744,7.105l51.657,0c-2.016,-2.37 -3.45,-4.801 -4.31,-7.291c-0.855,-2.494 -1.28,-5.886 -1.28,-10.173c0,-0.514 0.03,-1.55 0.091,-3.117c0.061,-1.564 0.093,-2.891 0.093,-3.979c0,-18.933 -1.814,-30.865 -5.433,-35.788c-3.627,-4.924 -10.388,-8 -20.301,-9.211l0,-1.533c8.827,-1.665 15.434,-5.124 19.821,-10.369c4.379,-5.249 6.576,-12.29 6.576,-21.128c0,-12.99 -3.788,-22.495 -11.364,-28.516c-7.573,-6.017 -19.547,-9.027 -35.917,-9.027l-75.049,0l0,140.131l49.22,0Zm0.373,-113.199c0.563,0 1.368,-0.033 2.431,-0.093c1.055,-0.068 1.837,-0.1 2.339,-0.1c7.913,0 13.61,1.148 17.105,3.432c3.491,2.286 5.238,5.974 5.238,11.055c0,5.089 -1.714,8.728 -5.147,10.914c-3.427,2.192 -9.156,3.285 -17.194,3.285c-0.501,0 -1.283,-0.033 -2.338,-0.099c-1.062,-0.062 -1.87,-0.094 -2.431,-0.094l-0.003,-28.3Zm-132.096,-4.522l2.511,0l10.415,68.964l-23.438,0l10.512,-68.964Zm-18.889,117.721l3.633,-21.481l32.832,0l3.72,21.481l51.069,0l-36.371,-140.134l-69.485,0l-36.307,140.131l50.909,0l0,0.003Zm-120.773,0l0,-44.326l27.098,0c16.501,0 28.512,-3.818 36.023,-11.46c7.511,-7.64 11.268,-19.802 11.268,-36.491c0,-17.003 -3.847,-29.237 -11.547,-36.681c-7.696,-7.449 -20.409,-11.173 -38.148,-11.173l-73.958,0l0,140.131l49.264,0Zm0,-111.151l3.019,0c7.414,0 12.788,1.532 16.121,4.591c3.328,3.059 4.996,7.997 4.996,14.818c0,6.753 -1.654,11.632 -4.952,14.624c-3.3,2.997 -8.685,4.494 -16.168,4.494l-3.018,0l0.002,-38.527Z" style="fill:#981436;fill-rule:nonzero;"/></svg>