<?xml version="1.0" encoding="UTF-8" standalone="no"?><!DOCTYPE svg PUBLIC "-//W3C//DTD SVG 1.1//EN" "http://www.w3.org/Graphics/SVG/1.1/DTD/svg11.dtd"><svg width="100%" height="100%" viewBox="0 0 1000 1000" version="1.1" xmlns="http://www.w3.org/2000/svg" xmlns:xlink="http://www.w3.org/1999/xlink" xml:space="preserve" xmlns:serif="http://www.serif.com/" style="fill-rule:evenodd;clip-rule:evenodd;stroke-linejoin:round;stroke-miterlimit:2;"><g><path d="M371.069,499.997c0,82.303 -66.714,149.027 -149.026,149.027c-82.298,0 -149.018,-66.723 -149.018,-149.027c0,-82.298 66.719,-149.021 149.018,-149.021c82.312,0 149.026,66.722 149.026,149.021Z" style="fill:#fff;fill-rule:nonzero;"/><path d="M363.207,499.997c0,77.965 -63.197,141.169 -141.164,141.169c-77.957,0 -141.159,-63.204 -141.159,-141.169c0,-77.961 63.202,-141.159 141.159,-141.159c77.968,0 141.164,63.198 141.164,141.159Z" style="fill:#f80;fill-rule:nonzero;"/><g><path d="M221.967,392.596c-59.286,0 -107.322,48.191 -107.322,107.483c0,59.282 48.036,107.479 107.322,107.479c59.278,0 107.482,-48.197 107.482,-107.479c0,-59.281 -48.204,-107.483 -107.482,-107.483Z" style="fill:#fff;fill-rule:nonzero;"/><path d="M221.967,400.668c-54.83,0 -99.247,44.569 -99.247,99.411c0,54.826 44.417,99.4 99.247,99.4c54.825,0 99.408,-44.574 99.408,-99.4c0,-54.832 -44.583,-99.411 -99.408,-99.411Z" style="fill:#fff;fill-rule:nonzero;"/><path d="M193.838,524.796c1.227,-0.668 2.542,-1.294 3.916,-1.89c16.37,-7.055 24.471,-19.461 24.471,-34.73c0,-15.138 -11.187,-28.33 -28.387,-32.943l0,69.563Zm32.889,-80.576c36.417,1.13 57.589,17.698 57.589,42c0,22.215 -13.734,34.374 -58.937,42.395c-33.67,5.982 -42.579,14.101 -42.579,27.966c0,8.494 2.839,15.001 7.808,20.828c-7.564,-4.749 -13.642,-14.555 -13.642,-25.653c0,-6.819 2.014,-13.285 6.583,-18.752l0,-79.422c-1.124,-0.072 -2.259,-0.108 -3.421,-0.108c-0.504,0 -0.995,0.021 -1.474,0.051c-0.615,0.041 -0.804,-0.672 -0.159,-0.951c1.559,-0.652 3.25,-1.294 5.054,-1.9l0,-16.692c0,-0.344 0.272,-0.621 0.617,-0.621l9.053,0c0.338,0 0.62,0.277 0.62,0.621l0,13.839c10.814,-2.482 23.178,-3.905 32.888,-3.601Z" style="fill:#1d1d1b;fill-rule:nonzero;"/><path d="M221.971,410.195c49.675,0 89.871,40.212 89.871,89.883c0,49.667 -40.197,89.874 -89.871,89.874c-49.658,0 -89.719,-40.207 -89.719,-89.874c0,-49.671 40.06,-89.883 89.719,-89.883Zm-0.004,-9.527c-54.83,0 -99.247,44.569 -99.247,99.411c0,54.826 44.417,99.4 99.247,99.4c54.825,0 99.408,-44.574 99.408,-99.4c0,-54.832 -44.583,-99.411 -99.408,-99.411Z" style="fill:#1d1d1b;fill-rule:nonzero;"/></g><path d="M430.249,491.319c5.792,0 9.52,-3.344 9.52,-8.022l0,-3.529c0,-4.659 -3.728,-8.39 -9.52,-8.39l-13.798,0c-1.303,0 -1.673,0.542 -1.673,1.663l0,16.799c0,0.928 0.37,1.479 1.673,1.479l13.798,0Zm-35.082,55.395c-0.745,0 -1.288,-0.358 -1.288,-1.489l0,-90.463c0,-1.13 0.543,-1.477 1.288,-1.477l34.532,0c18.265,0 30.383,9.5 30.383,26.3l0,4.833c0,14.546 -12.476,24.048 -30.383,24.048l-13.247,0c-1.303,0 -1.673,0.59 -1.673,1.517l0,35.242c0,1.132 -0.571,1.489 -1.494,1.489l-18.118,0l0,0Z" style="fill-rule:nonzero;"/><path d="M480.424,546.714c-0.73,0 -1.303,-0.358 -1.303,-1.489l0,-90.463c0,-1.13 0.573,-1.477 1.303,-1.477l18.091,0c0.558,0 1.51,0.347 1.51,1.477l0,90.463c0,1.131 -0.549,1.489 -1.51,1.489l-18.091,0Z" style="fill-rule:nonzero;"/><path d="M568.657,491.319c5.593,0 9.513,-3.344 9.513,-8.573l0,-2.427c0,-5.209 -3.717,-8.941 -9.513,-8.941l-17.732,0c-1.303,0 -1.654,0.543 -1.654,1.664l0,16.799c0,0.928 0.351,1.479 1.654,1.479l17.732,0l0,-0.001Zm-38.987,55.395c-0.743,0 -1.293,-0.358 -1.293,-1.489l0,-90.463c0,-1.13 0.55,-1.477 1.293,-1.477l38.986,0c18.269,0 30.226,10.806 30.226,28.339l0,1.306c0,8.938 -4.87,16.422 -11.569,20.123c-0.771,0.406 -1.127,0.977 -1.127,1.498c0,0.581 0.196,0.938 0.355,1.509l15.127,38.817c0,0.348 0.191,0.521 0.191,0.724c0,0.562 -0.357,1.112 -1.506,1.112l-19.217,0c-0.546,0 -1.104,-0.357 -1.322,-1.112l-14.321,-36.179c-0.377,-0.752 -0.749,-0.958 -1.314,-0.958l-13.255,0c-1.303,0 -1.654,0.591 -1.654,1.518l0,35.242c0,1.132 -0.576,1.489 -1.484,1.489l-18.116,0l0,0.001Z" style="fill-rule:nonzero;"/><path d="M715.441,546.714c-0.734,0 -1.284,-0.358 -1.284,-1.489l0,-72.184c0,-1.121 -0.385,-1.663 -1.88,-1.663l-17.692,0c-0.956,0 -1.51,-0.368 -1.51,-1.323l0,-15.293c0,-1.131 0.554,-1.478 1.51,-1.478l60.057,0c0.343,0 1.311,0.348 1.311,1.478l0,15.293c0,0.955 -0.58,1.323 -1.311,1.323l-17.936,0c-1.495,0 -1.838,0.542 -1.838,1.663l0,72.184c0,1.131 -0.561,1.489 -1.332,1.489l-18.095,0Z" style="fill-rule:nonzero;"/><path d="M775.147,546.714c-0.768,0 -1.314,-0.358 -1.314,-1.489l0,-90.463c0,-1.13 0.546,-1.477 1.314,-1.477l59.127,0c0.745,0 1.513,0.347 1.513,1.477l0,15.293c0,0.956 -0.58,1.323 -1.513,1.323l-37.85,0c-1.318,0 -1.702,0.543 -1.702,1.664l0,15.659c0,0.965 0.384,1.488 1.702,1.488l31.128,0c0.768,0 1.698,0.406 1.698,1.314l0,15.476c0,1.14 -0.93,1.487 -1.698,1.487l-31.128,0c-1.318,0 -1.702,0.591 -1.702,1.518l0,16.963c0,0.939 0.384,1.49 1.702,1.49l37.85,0c0.745,0 1.513,0.367 1.513,1.508l0,15.281c0,1.132 -0.58,1.489 -1.513,1.489l-59.127,0l0,-0.001Z" style="fill-rule:nonzero;"/><path d="M860.219,546.714c-0.771,0 -1.321,-0.358 -1.321,-1.489l0,-90.463c0,-1.13 0.549,-1.477 1.321,-1.477l15.644,0c0.99,0 1.51,0.347 1.896,1.11l25.881,47.924c1.702,3.17 3.024,6.535 3.185,6.92l0.55,0c0,-1.121 -0.55,-14.546 -0.55,-27.257l0,-27.22c0,-1.13 0.388,-1.477 1.289,-1.477l17.355,0c0.758,0 1.507,0.347 1.507,1.477l0,90.463c0,1.131 -0.553,1.489 -1.513,1.489l-15.648,0c-0.55,0 -0.935,-0.358 -1.48,-1.113l-26.134,-47.197c-1.669,-2.986 -2.986,-6.146 -2.986,-6.322l-0.551,0c0,0.91 0.768,14.538 0.768,26.475l0,26.668c0,1.132 -0.768,1.489 -1.673,1.489l-17.54,0l0,0Z" style="fill-rule:nonzero;"/><path d="M642.29,515.412c-1.287,0 -1.483,-0.562 -1.483,-1.499l8.552,-32.746l0.347,-1.692l2.456,0l0.373,1.692l8.549,32.746c0,0.937 -0.181,1.499 -1.492,1.499l-17.302,0Zm21.964,15.793c1.126,0 1.483,0.183 1.675,0.919l3.828,13.424c0.182,0.755 0.76,1.113 1.47,1.113l16.851,0c1.088,0 1.635,-0.358 1.653,-1.053c0,-0.205 -0.074,-0.543 -0.158,-0.785l-0.672,-2.329l-26.253,-88.219c-0.237,-0.764 -0.576,-0.937 -1.494,-0.937l-20.207,0c-0.945,0 -1.289,0.203 -1.506,0.937l-25.857,88.219l-0.647,2.329c-0.124,0.28 -0.155,0.58 -0.155,0.785c0.031,0.695 0.55,1.053 1.646,1.053l16.308,0c0.739,0 1.288,-0.358 1.5,-1.113l3.83,-13.424c0.174,-0.736 0.539,-0.919 1.673,-0.919l26.515,0Z" style="fill-rule:nonzero;"/><path d="M430.249,491.319c5.792,0 9.52,-3.344 9.52,-8.022l0,-3.529c0,-4.659 -3.728,-8.39 -9.52,-8.39l-13.798,0c-1.303,0 -1.673,0.542 -1.673,1.663l0,16.799c0,0.928 0.37,1.479 1.673,1.479l13.798,0Zm-35.082,55.395c-0.745,0 -1.288,-0.358 -1.288,-1.489l0,-90.463c0,-1.13 0.543,-1.477 1.288,-1.477l34.532,0c18.265,0 30.383,9.5 30.383,26.3l0,4.833c0,14.546 -12.476,24.048 -30.383,24.048l-13.247,0c-1.303,0 -1.673,0.59 -1.673,1.517l0,35.242c0,1.132 -0.571,1.489 -1.494,1.489l-18.118,0l0,0Z" style="fill-rule:nonzero;"/><path d="M480.424,546.714c-0.73,0 -1.303,-0.358 -1.303,-1.489l0,-90.463c0,-1.13 0.573,-1.477 1.303,-1.477l18.091,0c0.558,0 1.51,0.347 1.51,1.477l0,90.463c0,1.131 -0.549,1.489 -1.51,1.489l-18.091,0Z" style="fill-rule:nonzero;"/><path d="M568.657,491.319c5.593,0 9.513,-3.344 9.513,-8.573l0,-2.427c0,-5.209 -3.717,-8.941 -9.513,-8.941l-17.732,0c-1.303,0 -1.654,0.543 -1.654,1.664l0,16.799c0,0.928 0.351,1.479 1.654,1.479l17.732,0l0,-0.001Zm-38.987,55.395c-0.743,0 -1.293,-0.358 -1.293,-1.489l0,-90.463c0,-1.13 0.55,-1.477 1.293,-1.477l38.986,0c18.269,0 30.226,10.806 30.226,28.339l0,1.306c0,8.938 -4.87,16.422 -11.569,20.123c-0.771,0.406 -1.127,0.977 -1.127,1.498c0,0.581 0.196,0.938 0.355,1.509l15.127,38.817c0,0.348 0.191,0.521 0.191,0.724c0,0.562 -0.357,1.112 -1.506,1.112l-19.217,0c-0.546,0 -1.104,-0.357 -1.322,-1.112l-14.321,-36.179c-0.377,-0.752 -0.749,-0.958 -1.314,-0.958l-13.255,0c-1.303,0 -1.654,0.591 -1.654,1.518l0,35.242c0,1.132 -0.576,1.489 -1.484,1.489l-18.116,0l0,0.001Z" style="fill-rule:nonzero;"/><path d="M715.441,546.714c-0.734,0 -1.284,-0.358 -1.284,-1.489l0,-72.184c0,-1.121 -0.385,-1.663 -1.88,-1.663l-17.692,0c-0.956,0 -1.51,-0.368 -1.51,-1.323l0,-15.293c0,-1.131 0.554,-1.478 1.51,-1.478l60.057,0c0.343,0 1.311,0.348 1.311,1.478l0,15.293c0,0.955 -0.58,1.323 -1.311,1.323l-17.936,0c-1.495,0 -1.838,0.542 -1.838,1.663l0,72.184c0,1.131 -0.561,1.489 -1.332,1.489l-18.095,0Z" style="fill-rule:nonzero;"/><path d="M775.147,546.714c-0.768,0 -1.314,-0.358 -1.314,-1.489l0,-90.463c0,-1.13 0.546,-1.477 1.314,-1.477l59.127,0c0.745,0 1.513,0.347 1.513,1.477l0,15.293c0,0.956 -0.58,1.323 -1.513,1.323l-37.85,0c-1.318,0 -1.702,0.543 -1.702,1.664l0,15.659c0,0.965 0.384,1.488 1.702,1.488l31.128,0c0.768,0 1.698,0.406 1.698,1.314l0,15.476c0,1.14 -0.93,1.487 -1.698,1.487l-31.128,0c-1.318,0 -1.702,0.591 -1.702,1.518l0,16.963c0,0.939 0.384,1.49 1.702,1.49l37.85,0c0.745,0 1.513,0.367 1.513,1.508l0,15.281c0,1.132 -0.58,1.489 -1.513,1.489l-59.127,0l0,-0.001Z" style="fill-rule:nonzero;"/><path d="M860.219,546.714c-0.771,0 -1.321,-0.358 -1.321,-1.489l0,-90.463c0,-1.13 0.549,-1.477 1.321,-1.477l15.644,0c0.99,0 1.51,0.347 1.896,1.11l25.881,47.924c1.702,3.17 3.024,6.535 3.185,6.92l0.55,0c0,-1.121 -0.55,-14.546 -0.55,-27.257l0,-27.22c0,-1.13 0.388,-1.477 1.289,-1.477l17.355,0c0.758,0 1.507,0.347 1.507,1.477l0,90.463c0,1.131 -0.553,1.489 -1.513,1.489l-15.648,0c-0.55,0 -0.935,-0.358 -1.48,-1.113l-26.134,-47.197c-1.669,-2.986 -2.986,-6.146 -2.986,-6.322l-0.551,0c0,0.91 0.768,14.538 0.768,26.475l0,26.668c0,1.132 -0.768,1.489 -1.673,1.489l-17.54,0l0,0Z" style="fill-rule:nonzero;"/><path d="M642.29,515.412c-1.287,0 -1.483,-0.562 -1.483,-1.499l8.552,-32.746l0.347,-1.692l2.456,0l0.373,1.692l8.549,32.746c0,0.937 -0.181,1.499 -1.492,1.499l-17.302,0Zm21.964,15.793c1.126,0 1.483,0.183 1.675,0.919l3.828,13.424c0.182,0.755 0.76,1.113 1.47,1.113l16.851,0c1.088,0 1.635,-0.358 1.653,-1.053c0,-0.205 -0.074,-0.543 -0.158,-0.785l-0.672,-2.329l-26.253,-88.219c-0.237,-0.764 -0.576,-0.937 -1.494,-0.937l-20.207,0c-0.945,0 -1.289,0.203 -1.506,0.937l-25.857,88.219l-0.647,2.329c-0.124,0.28 -0.155,0.58 -0.155,0.785c0.031,0.695 0.55,1.053 1.646,1.053l16.308,0c0.739,0 1.288,-0.358 1.5,-1.113l3.83,-13.424c0.174,-0.736 0.539,-0.919 1.673,-0.919l26.515,0Z" style="fill-rule:nonzero;"/></g></svg>